# xmcd
#
# Track frame offsets: 
#        150
#        18302
#        31692
#        47857
#        60325
#        71040
#        83025
#        97000
#        110145
#        122020
#        135280
#        149957
#        160060
#        171627
#        186520
#        197670
#        211352
#        221722
#        235720
#        250480
#
# Disc length: 3568 seconds
#
# Revision: 0
# Processed by: cddbd v1.5.2PL0 Copyright (c) Steve Scherf et al.
# Submitted via: ExactAudioCopyFreeDBPlugin 1.0
#
DISCID=2f0dee14
DTITLE=Varios - 40 Boleros de siempre
DYEAR=1900
DGENRE=Bolero
TTITLE0=Somos - Varios
TTITLE1=Motivo y razón - Varios
TTITLE2=Llevame de la mano - Varios
TTITLE3=El loco - Varios
TTITLE4=De quien estás enamorada - Varios
TTITLE5=Con toda el alma - Varios
TTITLE6=Voy gritando por la calle - Varios
TTITLE7=La juventud se va - Varios
TTITLE8=Cariño ajeno - Varios
TTITLE9=Vuelve - Varios
TTITLE10=El tiempo que te quede libre - Varios
TTITLE11=Cantando por la calle - Varios
TTITLE12=Será por eso  - Varios
TTITLE13=Amor que malo eres - Varios
TTITLE14=Inolvidable - Varios
TTITLE15=Cuando ya no me quieras - Varios
TTITLE16=Te amaré toda la vida - Varios
TTITLE17=No mas tu - Varios
TTITLE18=Entre cadenas - Varios
TTITLE19=Amar y vivir-Amor de cobre-Falsaria - Varios
EXTD=
EXTT0=
EXTT1=
EXTT2=
EXTT3=
EXTT4=
EXTT5=
EXTT6=
EXTT7=
EXTT8=
EXTT9=
EXTT10=
EXTT11=
EXTT12=
EXTT13=
EXTT14=
EXTT15=
EXTT16=
EXTT17=
EXTT18=
EXTT19=
PLAYORDER=
